# xmcd
#
# Track frame offsets: 
#        150
#        13287
#        25335
#        35080
#        44954
#        60122
#        72299
#        82868
#        98515
#        112829
#        127674
#        141541
#        152137
#        168576
#        189531
#        218449
#        235279
#        253300
#        275550
#        299145
#        312445
#        326505
#
# Disc length: 4783 seconds
#
# Revision: 1
# Processed by: cddbd v1.5.2PL0 Copyright (c) Steve Scherf et al.
# Submitted via: ExactAudioCopy v1.0b3
#
DISCID=4612ad16
DTITLE=Creedence Cleawater Revival - Creedence Cleawater Revival Great
DTITLE=est Hits
DYEAR=2008
DGENRE=Classic Rock
TTITLE0=It Came Out of the Sky
TTITLE1=Molina
TTITLE2=Ooby Dooby
TTITLE3=Don't Look Now
TTITLE4=Chameleon
TTITLE5=Hey Tonight
TTITLE6=My Baby Left Me
TTITLE7=Before You Accuse Meu Accuse Me
TTITLE8=Lodi
TTITLE9=Cross-Tie Walker
TTITLE10=The Working Man
TTITLE11=Porterville
TTITLE12=Penthouse Pauper
TTITLE13=Walk on the Water
TTITLE14=Pagan Baby
TTITLE15=(Wish I Could) Hide Away
TTITLE16=Someday Never Comes
TTITLE17=Wrote a Song for Everyone
TTITLE18=Feelin' Blue
TTITLE19=Sweet Hitch-Hiker
TTITLE20=The Night Time is the Right Time
TTITLE21=The CCR Mix
EXTD=
EXTT0=
EXTT1=
EXTT2=
EXTT3=
EXTT4=
EXTT5=
EXTT6=
EXTT7=
EXTT8=
EXTT9=
EXTT10=
EXTT11=
EXTT12=
EXTT13=
EXTT14=
EXTT15=
EXTT16=
EXTT17=
EXTT18=
EXTT19=
EXTT20=
EXTT21=
PLAYORDER=
